<svg xmlns="http://www.w3.org/2000/svg" viewBox="0 0 128 128" role="img" aria-label="Screen Cast icon">
  <defs>
    <linearGradient id="screen" x1="24" x2="104" y1="26" y2="96" gradientUnits="userSpaceOnUse">
      <stop stop-color="#2563eb"/>
      <stop offset="1" stop-color="#0f172a"/>
    </linearGradient>
    <linearGradient id="glow" x1="30" x2="96" y1="18" y2="104" gradientUnits="userSpaceOnUse">
      <stop stop-color="#60a5fa"/>
      <stop offset="1" stop-color="#22d3ee"/>
    </linearGradient>
  </defs>
  <rect width="128" height="128" rx="28" fill="#f8fbff"/>
  <rect x="18" y="22" width="92" height="72" rx="14" fill="url(#screen)"/>
  <rect x="25" y="29" width="78" height="58" rx="9" fill="#111827"/>
  <path fill="url(#glow)" d="M35 41a6 6 0 0 1 6-6h30a6 6 0 0 1 6 6v5H41v28H35V41Z" opacity=".9"/>
  <path fill="#ffffff" d="M58 51.8c0-3.1 3.4-5 6.1-3.3l17.7 11.2c2.5 1.6 2.5 5.2 0 6.8L64.1 77.7c-2.7 1.7-6.1-.2-6.1-3.3V51.8Z"/>
  <circle cx="92" cy="38" r="12" fill="#ef4444"/>
  <circle cx="92" cy="38" r="5" fill="#ffffff"/>
  <path fill="#0f172a" d="M54 94h20v10h18a6 6 0 0 1 0 12H36a6 6 0 0 1 0-12h18V94Z"/>
</svg>
